<?xml version="1.0" encoding="UTF-8" standalone="no"?>
<svg width="48px" height="48px" viewBox="0 0 48 48" version="1.1" xmlns="http://www.w3.org/2000/svg" xmlns:xlink="http://www.w3.org/1999/xlink">
    <!-- Generator: Sketch 40 (33762) - http://www.bohemiancoding.com/sketch -->
    <title>文字</title>
    <desc>Created with Sketch.</desc>
    <defs></defs>
    <g id="Page-1" stroke="none" stroke-width="1" fill="none" fill-rule="evenodd">
        <g id="文字" fill="#FFFFFF">
            <path d="M32.23,19.7099 L30.99,18.9799 L25.24,18.9799 L25.24,34.4899 L25.9,35.3599 L20.79,35.3599 L21.46,34.4899 L21.46,18.9799 L15.79,18.9799 L14.47,19.7099 L14.47,15.3899 L32.23,15.3899 L32.23,19.7099 Z M37.85,9.8199 C34.26,6.2199 29.3,3.9999 23.83,3.9999 C18.35,3.9999 13.4,6.2199 9.81,9.8199 C6.22,13.3999 4,18.3599 4,23.8299 L4,43.6599 L23.83,43.6599 C34.78,43.6599 43.66,34.7799 43.66,23.8299 C43.66,18.3599 41.44,13.3999 37.85,9.8199 L37.85,9.8199 Z" id="Page-1"></path>
        </g>
    </g>
</svg>