<?xml version="1.0" encoding="UTF-8" standalone="no"?>
<svg width="48px" height="48px" viewBox="0 0 48 48" version="1.1" xmlns="http://www.w3.org/2000/svg" xmlns:xlink="http://www.w3.org/1999/xlink">
    <!-- Generator: Sketch 40 (33762) - http://www.bohemiancoding.com/sketch -->
    <title>文本框叉</title>
    <desc>Created with Sketch.</desc>
    <defs>
        <polygon id="path-1" points="39.2358 40 0 40 0 0.7641 39.2358 0.7641 39.2358 40"></polygon>
    </defs>
    <g id="Page-1" stroke="none" stroke-width="1" fill="none" fill-rule="evenodd">
        <g id="文本框叉">
            <g id="Page-1" transform="translate(4.000000, 3.000000)">
                <g id="Group-3" transform="translate(0.000000, 0.235800)">
                    <mask id="mask-2" fill="white">
                        <use xlink:href="#path-1"></use>
                    </mask>
                    <g id="Clip-2"></g>
                    <path d="M39.2358,20.3821 C39.2358,31.2171 30.4528,40.0001 19.6178,40.0001 C8.7828,40.0001 -0.0002,31.2171 -0.0002,20.3821 C-0.0002,9.5471 8.7828,0.7641 19.6178,0.7641 C30.4528,0.7641 39.2358,9.5471 39.2358,20.3821" id="Fill-1" fill="#FFFFFF" mask="url(#mask-2)"></path>
                </g>
                <path d="M27.8484,30.5102 L9.7254,12.3872 C9.2664,11.9282 9.2664,11.1842 9.7254,10.7262 L9.7254,10.7262 C10.1844,10.2672 10.9274,10.2672 11.3864,10.7262 L29.5104,28.8482 C29.9684,29.3072 29.9684,30.0512 29.5104,30.5102 L29.5104,30.5102 C29.0514,30.9692 28.3074,30.9692 27.8484,30.5102" id="Fill-4" fill="#282828"></path>
                <path d="M9.7251,30.5102 L9.7251,30.5102 C9.2661,30.0512 9.2661,29.3072 9.7251,28.8482 L27.8481,10.7262 C28.3071,10.2672 29.0511,10.2672 29.5101,10.7262 L29.5101,10.7262 C29.9691,11.1842 29.9691,11.9282 29.5101,12.3872 L11.3871,30.5102 C10.9281,30.9692 10.1841,30.9692 9.7251,30.5102" id="Fill-6" fill="#282828"></path>
            </g>
        </g>
    </g>
</svg>