<?xml version="1.0" encoding="UTF-8" standalone="no"?>
<svg width="48px" height="48px" viewBox="0 0 48 48" version="1.1" xmlns="http://www.w3.org/2000/svg" xmlns:xlink="http://www.w3.org/1999/xlink">
    <!-- Generator: Sketch 40 (33762) - http://www.bohemiancoding.com/sketch -->
    <title>文本框缩放</title>
    <desc>Created with Sketch.</desc>
    <defs>
        <polygon id="path-1" points="39.2358 40 0 40 0 0.7641 39.2358 0.7641 39.2358 40"></polygon>
    </defs>
    <g id="Page-1" stroke="none" stroke-width="1" fill="none" fill-rule="evenodd">
        <g id="文本框缩放">
            <g id="Page-1" transform="translate(4.000000, 4.000000)">
                <g id="Group-3" transform="translate(0.000000, 0.235800)">
                    <mask id="mask-2" fill="white">
                        <use xlink:href="#path-1"></use>
                    </mask>
                    <g id="Clip-2"></g>
                    <path d="M39.2358,20.3821 C39.2358,31.2171 30.4528,40.0001 19.6178,40.0001 C8.7828,40.0001 -0.0002,31.2171 -0.0002,20.3821 C-0.0002,9.5471 8.7828,0.7641 19.6178,0.7641 C30.4528,0.7641 39.2358,9.5471 39.2358,20.3821" id="Fill-1" fill="#FFFFFF" mask="url(#mask-2)"></path>
                </g>
                <path d="M29.8313,32.0066 L21.2253,32.0066 C20.5763,32.0066 20.0503,31.4806 20.0503,30.8316 L20.0503,30.8316 C20.0503,30.1826 20.5763,29.6566 21.2253,29.6566 L27.4813,29.6566 C28.1303,29.6566 28.6563,29.1306 28.6563,28.4816 L28.6563,22.2256 C28.6563,21.5766 29.1823,21.0506 29.8313,21.0506 L29.8313,21.0506 C30.4803,21.0506 31.0063,21.5766 31.0063,22.2256 L31.0063,30.8316 C31.0063,31.4806 30.4803,32.0066 29.8313,32.0066" id="Fill-4" fill="#282828"></path>
                <path d="M28.1696,30.8314 L21.3996,24.0614 C20.9416,23.6024 20.9416,22.8584 21.4006,22.3994 L21.4006,22.3994 C21.8586,21.9414 22.6026,21.9414 23.0616,22.3994 L29.8316,29.1694 C30.2906,29.6284 30.2906,30.3724 29.8316,30.8314 L29.8316,30.8314 C29.3726,31.2904 28.6286,31.2904 28.1696,30.8314" id="Fill-6" fill="#282828"></path>
                <path d="M9.4048,20.1856 L9.4048,20.1856 C8.7558,20.1856 8.2298,19.6596 8.2298,19.0106 L8.2298,10.4046 C8.2298,9.7556 8.7558,9.2296 9.4048,9.2296 L18.0108,9.2296 C18.6588,9.2296 19.1848,9.7556 19.1848,10.4046 L19.1848,10.4046 C19.1848,11.0536 18.6588,11.5796 18.0108,11.5796 L11.7548,11.5796 C11.1058,11.5796 10.5798,12.1056 10.5798,12.7546 L10.5798,19.0106 C10.5798,19.6596 10.0538,20.1856 9.4048,20.1856" id="Fill-8" fill="#282828"></path>
                <path d="M16.142,18.8034 L9.405,12.0664 C8.946,11.6074 8.946,10.8634 9.405,10.4044 L9.405,10.4044 C9.864,9.9454 10.607,9.9454 11.066,10.4044 L17.804,17.1414 C18.263,17.6004 18.263,18.3444 17.804,18.8034 L17.804,18.8034 C17.345,19.2624 16.601,19.2624 16.142,18.8034" id="Fill-10" fill="#282828"></path>
            </g>
        </g>
    </g>
</svg>