<?xml version="1.0" encoding="UTF-8" standalone="no"?>
<svg width="114px" height="58px" viewBox="0 0 114 58" version="1.1" xmlns="http://www.w3.org/2000/svg" xmlns:xlink="http://www.w3.org/1999/xlink">
    <!-- Generator: Sketch 40 (33762) - http://www.bohemiancoding.com/sketch -->
    <title>画笔激活</title>
    <desc>Created with Sketch.</desc>
    <defs>
        <polygon id="path-1" points="78.979 36.5995 78.979 0.5225 0.1516 0.5225 0.1516 36.5995"></polygon>
    </defs>
    <g id="Page-1" stroke="none" stroke-width="1" fill="none" fill-rule="evenodd">
        <g id="画笔激活">
            <g id="Page-1" transform="translate(5.000000, 10.000000)">
                <polygon id="Fill-1" fill="#C8C9CA" points="30.11 28.804 33.585 28.804 33.585 8.318 30.11 8.318"></polygon>
                <g id="Group-7">
                    <g id="Group-4" transform="translate(30.000000, 0.000000)">
                        <mask id="mask-2" fill="white">
                            <use xlink:href="#path-1"></use>
                        </mask>
                        <g id="Clip-3"></g>
                        <path d="M27.9926,0.5225 C23.9816,0.5225 20.0296,1.2135 16.2566,2.5555 L0.1516,8.3185 L0.1516,11.9885 L17.4276,5.8115 C20.8336,4.5975 24.3786,3.9765 27.9926,3.9765 L79.1466,3.9765 L79.1466,33.1455 L27.9826,33.1455 C24.3786,33.1455 20.8336,32.5235 17.4476,31.3205 L0.1516,25.1325 L0.1516,28.8035 L16.2666,34.5665 C20.0296,35.9085 23.9716,36.5995 27.9826,36.5995 L82.6226,36.5995 L82.6226,0.5225 L27.9926,0.5225 Z" id="Fill-2" fill="#C8C9CA" mask="url(#mask-2)"></path>
                    </g>
                    <polygon id="Fill-5" fill="#FF2968" points="26.8252 8.9694 26.8252 28.1424 0.0072 18.5614"></polygon>
                </g>
                <path d="M31.9719,9.2687 L55.6359,2.0327 L108.9999,2.0327 L108.9999,35.0897 L60.2699,35.0897 C60.2699,35.0897 46.8659,33.4317 46.2039,33.3557 C45.5419,33.2807 31.9719,27.6887 31.9719,27.6887 L31.9719,9.2687 Z" id="Fill-8" fill="#C8C9CA"></path>
            </g>
        </g>
    </g>
</svg>