<?xml version="1.0" encoding="UTF-8" standalone="no"?>
<svg width="48px" height="48px" viewBox="0 0 48 48" version="1.1" xmlns="http://www.w3.org/2000/svg" xmlns:xlink="http://www.w3.org/1999/xlink">
    <!-- Generator: Sketch 40 (33762) - http://www.bohemiancoding.com/sketch -->
    <title>编辑</title>
    <desc>Created with Sketch.</desc>
    <defs></defs>
    <g id="Page-1" stroke="none" stroke-width="1" fill="none" fill-rule="evenodd">
        <g id="编辑" fill="#FFFFFF">
            <g id="Page-1" transform="translate(4.000000, 4.000000)">
                <path d="M33.4923,39.8762 L6.5073,39.8762 C3.0393,39.8762 0.2283,37.0652 0.2283,33.5972 L0.2283,6.6122 C0.2283,3.1442 3.0393,0.3332 6.5073,0.3332 L23.6813,0.3332 C24.2513,0.3332 24.7133,0.7952 24.7133,1.3652 L24.7133,3.3012 C24.7133,3.8712 24.2513,4.3332 23.6813,4.3332 L6.5073,4.3332 C5.2483,4.3332 4.2283,5.3532 4.2283,6.6122 L4.2283,33.5972 C4.2283,34.8562 5.2493,35.8762 6.5073,35.8762 L33.4923,35.8762 C34.7513,35.8762 35.7713,34.8562 35.7713,33.5972 L35.7713,15.3782 C35.7713,14.8082 36.2333,14.3462 36.8033,14.3462 L38.7403,14.3462 C39.3093,14.3462 39.7713,14.8082 39.7713,15.3782 L39.7713,33.5972 C39.7713,37.0652 36.9603,39.8762 33.4923,39.8762" id="Fill-1"></path>
                <path d="M39.1617,3.2559 L17.8637,24.5449 C17.6707,24.7379 17.4077,24.8469 17.1347,24.8469 L15.7627,24.8469 C15.1937,24.8469 14.7317,24.3849 14.7317,23.8149 L14.7317,22.4539 C14.7317,22.1799 14.8397,21.9179 15.0337,21.7239 L36.3317,0.4259 C36.7347,0.0229 37.3877,0.0229 37.7907,0.4259 L39.1617,1.7969 C39.5647,2.1999 39.5647,2.8529 39.1617,3.2559" id="Fill-3"></path>
            </g>
        </g>
    </g>
</svg>