<?xml version="1.0" encoding="UTF-8" standalone="no"?>
<svg width="253px" height="58px" viewBox="0 0 253 58" version="1.1" xmlns="http://www.w3.org/2000/svg" xmlns:xlink="http://www.w3.org/1999/xlink">
    <!-- Generator: Sketch 40 (33762) - http://www.bohemiancoding.com/sketch -->
    <title>透明度调节</title>
    <desc>Created with Sketch.</desc>
    <defs>
        <polygon id="path-1" points="0 29 222.86 29 222.86 0.48 0 0.48"></polygon>
        <linearGradient x1="0%" y1="50%" x2="87.8961468%" y2="50%" id="linearGradient-3">
            <stop stop-color="#FF2968" stop-opacity="0" offset="0%"></stop>
            <stop stop-color="#FF2968" stop-opacity="0.2872226" offset="37.3773872%"></stop>
            <stop stop-color="#FF2968" stop-opacity="0.499858469" offset="65.8722537%"></stop>
            <stop stop-color="#FF2968" offset="100%"></stop>
        </linearGradient>
    </defs>
    <g id="Page-1" stroke="none" stroke-width="1" fill="none" fill-rule="evenodd">
        <g id="透明度调节">
            <path d="M225.4,43.52 L28.26,43.52 C20.417,43.52 14,37.103 14,29.26 L14,29.26 C14,21.417 20.417,15 28.26,15 L225.4,15 C233.243,15 239.66,21.417 239.66,29.26 L239.66,29.26 C239.66,37.103 233.243,43.52 225.4,43.52" id="Fill-1" fill="#FFFFFF" opacity="0.1"></path>
            <g id="Page-1" opacity="0.1" transform="translate(15.000000, 14.000000)">
                <polygon id="Fill-1" fill="#FFFFFF" points="7.246 21.39 19.503 21.39 19.503 9.133 7.246 9.133"></polygon>
                <polygon id="Fill-2" fill="#FFFFFF" points="31.76 21.39 44.017 21.39 44.017 9.133 31.76 9.133"></polygon>
                <polygon id="Fill-3" fill="#FFFFFF" points="80.788 21.39 93.045 21.39 93.045 9.133 80.788 9.133"></polygon>
                <g id="网格" transform="translate(0.000000, 0.520000)">
                    <path d="M7.25,1.63 L7.25,8.61 L0,8.61 C0.7,7.14 1.65,5.81 2.79,4.67 C4.06,3.39 5.57,2.36 7.25,1.63 L7.25,1.63 Z" id="Fill-4" fill="#FFFFFF"></path>
                    <mask id="mask-2" fill="white">
                        <use xlink:href="#path-1"></use>
                    </mask>
                    <g id="Clip-7"></g>
                    <polygon id="Fill-6" fill="#FFFFFF" mask="url(#mask-2)" points="19.5 8.61 31.76 8.61 31.76 0.48 19.5 0.48"></polygon>
                    <path d="M7.25,20.87 L7.25,27.85 C4.08,26.47 1.49,23.98 0,20.87 L7.25,20.87 Z" id="Fill-8" fill="#FFFFFF" mask="url(#mask-2)"></path>
                    <polygon id="Fill-9" fill="#FFFFFF" mask="url(#mask-2)" points="19.5 29 31.76 29 31.76 20.87 19.5 20.87"></polygon>
                    <polygon id="Fill-10" fill="#FFFFFF" mask="url(#mask-2)" points="56.274 20.87 68.531 20.87 68.531 8.613 56.274 8.613"></polygon>
                    <polygon id="Fill-11" fill="#FFFFFF" mask="url(#mask-2)" points="44.02 8.61 56.27 8.61 56.27 0.48 44.02 0.48"></polygon>
                    <polygon id="Fill-12" fill="#FFFFFF" mask="url(#mask-2)" points="68.53 8.61 80.79 8.61 80.79 0.48 68.53 0.48"></polygon>
                    <polygon id="Fill-13" fill="#FFFFFF" mask="url(#mask-2)" points="44.02 29 56.27 29 56.27 20.87 44.02 20.87"></polygon>
                    <polygon id="Fill-14" fill="#FFFFFF" mask="url(#mask-2)" points="68.53 29 80.79 29 80.79 20.87 68.53 20.87"></polygon>
                    <polygon id="Fill-15" fill="#FFFFFF" mask="url(#mask-2)" points="105.302 20.87 117.559 20.87 117.559 8.613 105.302 8.613"></polygon>
                    <polygon id="Fill-16" fill="#FFFFFF" mask="url(#mask-2)" points="129.816 20.87 142.073 20.87 142.073 8.613 129.816 8.613"></polygon>
                    <polygon id="Fill-17" fill="#FFFFFF" mask="url(#mask-2)" points="154.33 20.87 166.587 20.87 166.587 8.613 154.33 8.613"></polygon>
                    <polygon id="Fill-18" fill="#FFFFFF" mask="url(#mask-2)" points="178.843 20.87 191.1 20.87 191.1 8.613 178.843 8.613"></polygon>
                    <polygon id="Fill-19" fill="#FFFFFF" mask="url(#mask-2)" points="203.357 20.87 215.614 20.87 215.614 8.613 203.357 8.613"></polygon>
                    <polygon id="Fill-20" fill="#FFFFFF" mask="url(#mask-2)" points="93.04 8.61 105.3 8.61 105.3 0.48 93.04 0.48"></polygon>
                    <polygon id="Fill-21" fill="#FFFFFF" mask="url(#mask-2)" points="117.56 8.61 129.82 8.61 129.82 0.48 117.56 0.48"></polygon>
                    <polygon id="Fill-22" fill="#FFFFFF" mask="url(#mask-2)" points="93.04 29 105.3 29 105.3 20.87 93.04 20.87"></polygon>
                    <polygon id="Fill-23" fill="#FFFFFF" mask="url(#mask-2)" points="117.56 29 129.82 29 129.82 20.87 117.56 20.87"></polygon>
                    <polygon id="Fill-24" fill="#FFFFFF" mask="url(#mask-2)" points="142.07 8.61 154.33 8.61 154.33 0.48 142.07 0.48"></polygon>
                    <polygon id="Fill-25" fill="#FFFFFF" mask="url(#mask-2)" points="166.59 8.61 178.84 8.61 178.84 0.48 166.59 0.48"></polygon>
                    <polygon id="Fill-26" fill="#FFFFFF" mask="url(#mask-2)" points="142.07 29 154.33 29 154.33 20.87 142.07 20.87"></polygon>
                    <polygon id="Fill-27" fill="#FFFFFF" mask="url(#mask-2)" points="166.59 29 178.84 29 178.84 20.87 166.59 20.87"></polygon>
                    <polygon id="Fill-28" fill="#FFFFFF" mask="url(#mask-2)" points="191.1 8.61 203.36 8.61 203.36 0.48 191.1 0.48"></polygon>
                    <path d="M222.86,8.61 L215.61,8.61 L215.61,1.63 C218.78,3.01 221.37,5.5 222.86,8.61" id="Fill-29" fill="#FFFFFF" mask="url(#mask-2)"></path>
                    <polygon id="Fill-30" fill="#FFFFFF" mask="url(#mask-2)" points="191.1 29 203.36 29 203.36 20.87 191.1 20.87"></polygon>
                    <path d="M222.86,20.87 C222.16,22.34 221.21,23.67 220.07,24.81 C218.8,26.09 217.29,27.12 215.61,27.85 L215.61,20.87 L222.86,20.87 Z" id="Fill-31" fill="#FFFFFF" mask="url(#mask-2)"></path>
                </g>
            </g>
            <path d="M28.26,43.52 C20.417,43.52 14,37.103 14,29.26 C14,21.417 20.417,15 28.26,15 L225.4,15 C233.243,15 239.66,21.417 239.66,29.26 C239.66,37.103 233.243,43.52 225.4,43.52 L28.26,43.52 Z" id="Fill-1" fill="url(#linearGradient-3)"></path>
            <path d="M140.669,29.329 C140.669,30.04 140.612,30.74 140.52,31.417 C139.499,38.346 133.533,43.669 126.329,43.669 C118.47,43.669 112.092,37.337 112,29.501 L112,29.157 C112.092,21.321 118.47,15 126.329,15 C133.533,15 139.499,20.312 140.52,27.241 C140.612,27.918 140.669,28.618 140.669,29.329" id="Fill-37" fill="#FFFFFF"></path>
        </g>
    </g>
</svg>