<?xml version="1.0" encoding="UTF-8" standalone="no"?>
<svg width="48px" height="48px" viewBox="0 0 48 48" version="1.1" xmlns="http://www.w3.org/2000/svg" xmlns:xlink="http://www.w3.org/1999/xlink">
    <!-- Generator: Sketch 40 (33762) - http://www.bohemiancoding.com/sketch -->
    <title>长截屏</title>
    <desc>Created with Sketch.</desc>
    <defs>
        <polygon id="path-1" points="14.358 13.9351 14.358 0.4861 0.7805 0.4861 0.7805 13.9351"></polygon>
        <polygon id="path-3" points="0 0.7771 0 14.2261 13.5778 14.2261 13.5778 0.7771"></polygon>
    </defs>
    <g id="Page-1" stroke="none" stroke-width="1" fill="none" fill-rule="evenodd">
        <g id="长截屏">
            <g id="Page-1" transform="translate(4.000000, 3.000000)">
                <path d="M18.9687,25.9873 L10.8237,17.8413 C10.4077,17.4253 10.4077,16.7513 10.8237,16.3353 L12.1457,15.0133 C12.5617,14.5973 13.2357,14.5973 13.6517,15.0133 L19.1737,20.5343 C19.4527,20.8143 19.9067,20.8143 20.1857,20.5343 L25.7077,15.0133 C26.1237,14.5973 26.7977,14.5973 27.2137,15.0133 L28.5357,16.3353 C28.9517,16.7513 28.9517,17.4253 28.5357,17.8413 L20.3907,25.9873 C19.9977,26.3803 19.3617,26.3803 18.9687,25.9873" id="Fill-1" fill="#FFFFFF"></path>
                <path d="M12.679,40.2876 L4.864,40.2876 C2.178,40.2876 0,38.1096 0,35.4236 L0,27.4796 C0,27.0536 0.345,26.7086 0.77,26.7086 L3.23,26.7086 C3.655,26.7086 4,27.0536 4,27.4796 L4,35.4236 C4,35.9006 4.387,36.2876 4.864,36.2876 L12.679,36.2876 C13.104,36.2876 13.449,36.6326 13.449,37.0576 L13.449,39.5176 C13.449,39.9426 13.104,40.2876 12.679,40.2876" id="Fill-3" fill="#FFFFFF"></path>
                <g id="Group-7" transform="translate(25.000000, 26.287600)">
                    <mask id="mask-2" fill="white">
                        <use xlink:href="#path-1"></use>
                    </mask>
                    <g id="Clip-6"></g>
                    <path d="M9.4945,13.9351 L1.5505,13.9351 C1.1255,13.9351 0.7805,13.5901 0.7805,13.1651 L0.7805,10.7051 C0.7805,10.2801 1.1255,9.9351 1.5505,9.9351 L9.4945,9.9351 C9.9715,9.9351 10.3585,9.5481 10.3585,9.0711 L10.3585,1.2561 C10.3585,0.8311 10.7035,0.4861 11.1285,0.4861 L13.5885,0.4861 C14.0135,0.4861 14.3585,0.8311 14.3585,1.2561 L14.3585,9.0711 C14.3585,11.7571 12.1805,13.9351 9.4945,13.9351" id="Fill-5" fill="#FFFFFF" mask="url(#mask-2)"></path>
                </g>
                <path d="M38.5238,14.5786 L36.0638,14.5786 C35.6388,14.5786 35.2938,14.2336 35.2938,13.8086 L35.2938,5.8636 C35.2938,5.3866 34.9068,4.9996 34.4298,4.9996 L26.6148,4.9996 C26.1898,4.9996 25.8448,4.6556 25.8448,4.2296 L25.8448,1.7706 C25.8448,1.3446 26.1898,0.9996 26.6148,0.9996 L34.4298,0.9996 C37.1168,0.9996 39.2938,3.1776 39.2938,5.8636 L39.2938,13.8086 C39.2938,14.2336 38.9488,14.5786 38.5238,14.5786" id="Fill-8" fill="#FFFFFF"></path>
                <g id="Group-12" transform="translate(0.000000, 0.287600)">
                    <mask id="mask-4" fill="white">
                        <use xlink:href="#path-3"></use>
                    </mask>
                    <g id="Clip-11"></g>
                    <path d="M3.2298,14.2261 L0.7698,14.2261 C0.3448,14.2261 -0.0002,13.8811 -0.0002,13.4561 L-0.0002,5.6411 C-0.0002,2.9551 2.1778,0.7771 4.8638,0.7771 L12.8078,0.7771 C13.2328,0.7771 13.5778,1.1221 13.5778,1.5471 L13.5778,4.0071 C13.5778,4.4321 13.2328,4.7771 12.8078,4.7771 L4.8638,4.7771 C4.3868,4.7771 3.9998,5.1641 3.9998,5.6411 L3.9998,13.4561 C3.9998,13.8811 3.6548,14.2261 3.2298,14.2261" id="Fill-10" fill="#FFFFFF" mask="url(#mask-4)"></path>
                </g>
            </g>
        </g>
    </g>
</svg>